<svg xmlns="http://www.w3.org/2000/svg" width="1040" height="640" viewBox="0 0 1040 640" role="img" aria-labelledby="title desc">
  <title id="title">Excel macro hotkeys map</title>
  <desc id="desc">Grouped macro hotkeys for PlanSwift formatting, cleanup, forms and output checks.</desc>
  <defs>
    <style>
      .bg { fill: #f6faf6; }
      .panel { fill: #ffffff; stroke: #bfd4bf; stroke-width: 2; }
      .group { fill: #f8fcf8; stroke: #8caf8c; stroke-width: 1.6; }
      .head { fill: #dff3df; stroke: #498a49; stroke-width: 1.5; }
      .title { fill: #1f3321; font-family: Inter, Arial, sans-serif; font-size: 24px; font-weight: 700; }
      .subtitle { fill: #334a35; font-family: Inter, Arial, sans-serif; font-size: 15px; }
      .label { fill: #1f3321; font-family: Inter, Arial, sans-serif; font-size: 16px; font-weight: 700; }
      .text { fill: #344936; font-family: Inter, Arial, sans-serif; font-size: 14px; }
      .key { fill: #e8f7d6; stroke: #87aa54; stroke-width: 1.3; rx: 9; }
      .key2 { fill: #eef5ee; stroke: #8aae8a; stroke-width: 1.3; rx: 9; }
      .kbd { fill: #243925; font-family: JetBrains Mono, Consolas, monospace; font-size: 13px; font-weight: 700; }
    </style>
  </defs>

  <rect class="bg" width="1040" height="640"/>
  <rect class="panel" x="32" y="28" width="976" height="584" rx="18"/>
  <text class="title" x="64" y="72">Excel macro hotkeys</text>
  <text class="subtitle" x="64" y="100">Custom VBA shortcuts for PlanSwift output, cleanup, forms, and final check.</text>

  <g transform="translate(64 132)">
    <rect class="group" x="0" y="0" width="440" height="178" rx="14"/>
    <rect class="head" x="0" y="0" width="440" height="42" rx="14"/>
    <text class="label" x="18" y="27">PlanSwift formatting</text>
    <rect class="key" x="18" y="62" width="112" height="30"/><text class="kbd" x="34" y="82">Ctrl+Shift+B</text>
    <text class="text" x="148" y="82">Format Beams</text>
    <rect class="key" x="18" y="102" width="112" height="30"/><text class="kbd" x="34" y="122">Ctrl+Shift+J</text>
    <text class="text" x="148" y="122">Format Joists</text>
    <rect class="key" x="18" y="142" width="112" height="30"/><text class="kbd" x="34" y="162">Ctrl+Shift+R</text>
    <text class="text" x="148" y="162">Format Details</text>
  </g>

  <g transform="translate(536 132)">
    <rect class="group" x="0" y="0" width="440" height="178" rx="14"/>
    <rect class="head" x="0" y="0" width="440" height="42" rx="14"/>
    <text class="label" x="18" y="27">Cleanup cells / rows</text>
    <rect class="key2" x="18" y="62" width="74" height="30"/><text class="kbd" x="34" y="82">Ctrl+Q</text>
    <text class="text" x="110" y="82">Delete selected cells, shift up</text>
    <rect class="key2" x="18" y="102" width="74" height="30"/><text class="kbd" x="34" y="122">Ctrl+W</text>
    <text class="text" x="110" y="122">Add selected cells, shift up</text>
    <rect class="key2" x="18" y="142" width="74" height="30"/><text class="kbd" x="34" y="162">Ctrl+E</text>
    <text class="text" x="110" y="162">Delete zero rows in column C</text>
  </g>

  <g transform="translate(64 338)">
    <rect class="group" x="0" y="0" width="440" height="198" rx="14"/>
    <rect class="head" x="0" y="0" width="440" height="42" rx="14"/>
    <text class="label" x="18" y="27">Forms / output write</text>
    <rect class="key" x="18" y="62" width="112" height="30"/><text class="kbd" x="34" y="82">Ctrl+Shift+W</text>
    <text class="text" x="148" y="82">Write wall values to form</text>
    <rect class="key" x="18" y="102" width="112" height="30"/><text class="kbd" x="34" y="122">Ctrl+Shift+Q</text>
    <text class="text" x="148" y="122">Write area values to form</text>
    <rect class="key" x="18" y="142" width="112" height="30"/><text class="kbd" x="34" y="162">Ctrl+Shift+N</text>
    <text class="text" x="148" y="162">Write to check</text>
  </g>

  <g transform="translate(536 338)">
    <rect class="group" x="0" y="0" width="440" height="198" rx="14"/>
    <rect class="head" x="0" y="0" width="440" height="42" rx="14"/>
    <text class="label" x="18" y="27">Helpers and final check</text>
    <rect class="key2" x="18" y="62" width="112" height="30"/><text class="kbd" x="34" y="82">Ctrl+Shift+F</text>
    <text class="text" x="148" y="82">Sum same values</text>
    <rect class="key2" x="18" y="102" width="112" height="30"/><text class="kbd" x="34" y="122">Ctrl+Shift+I</text>
    <text class="text" x="148" y="122">Insert Note: text</text>
    <rect class="key2" x="18" y="142" width="112" height="30"/><text class="kbd" x="34" y="162">Ctrl+Shift+O</text>
    <text class="text" x="148" y="162">Set date</text>
  </g>

  <g transform="translate(64 558)">
    <rect class="key" x="0" y="0" width="92" height="30"/><text class="kbd" x="16" y="20">Ctrl+M</text>
    <text class="text" x="104" y="20">Multiply all in cell</text>
    <rect class="key" x="276" y="0" width="112" height="30"/><text class="kbd" x="292" y="20">Ctrl+Shift+V</text>
    <text class="text" x="400" y="20">Remove validations</text>
    <rect class="key" x="620" y="0" width="112" height="30"/><text class="kbd" x="636" y="20">Ctrl+Shift+L</text>
    <text class="text" x="744" y="20">Add bolts block</text>
  </g>
</svg>
