<svg xmlns="http://www.w3.org/2000/svg" width="1040" height="640" viewBox="0 0 1040 640" role="img" aria-labelledby="title desc">
  <title id="title">Excel macro hotkeys map</title>
  <desc id="desc">Grouped macro hotkeys for PlanSwift formatting, cleanup, forms and output checks.</desc>
  <defs>
    <linearGradient id="pageWash" x1="0" y1="0" x2="1" y2="1">
      <stop offset="0" stop-color="#fff8ed"/>
      <stop offset="1" stop-color="#efe1cc"/>
    </linearGradient>
    <pattern id="woodBody" width="180" height="80" patternUnits="userSpaceOnUse">
      <rect width="180" height="80" fill="#d8aa72"/>
      <path d="M0 14 C30 8, 55 22, 86 14 S142 6, 180 18" stroke="#b47738" stroke-width="2" opacity=".34" fill="none"/>
      <path d="M0 33 C38 42, 68 25, 104 36 S154 49, 180 38" stroke="#8f5b2d" stroke-width="1.4" opacity=".28" fill="none"/>
      <path d="M0 54 C24 47, 64 58, 94 52 S144 43, 180 55" stroke="#f1c996" stroke-width="1.5" opacity=".45" fill="none"/>
      <path d="M0 70 C36 76, 70 63, 106 71 S154 80, 180 69" stroke="#7c4a23" stroke-width="1" opacity=".18" fill="none"/>
      <ellipse cx="138" cy="34" rx="17" ry="7" fill="none" stroke="#7b4a23" stroke-width="1.3" opacity=".22"/>
      <ellipse cx="138" cy="34" rx="7" ry="3" fill="#986133" opacity=".18"/>
    </pattern>
    <pattern id="woodHead" width="180" height="54" patternUnits="userSpaceOnUse">
      <rect width="180" height="54" fill="#b7793c"/>
      <path d="M0 9 C36 2, 72 17, 108 9 S150 0, 180 11" stroke="#e8b678" stroke-width="2" opacity=".38" fill="none"/>
      <path d="M0 25 C28 32, 65 18, 98 28 S145 38, 180 27" stroke="#6f3d18" stroke-width="1.2" opacity=".35" fill="none"/>
      <path d="M0 43 C40 36, 70 48, 104 42 S148 34, 180 44" stroke="#f1c996" stroke-width="1.2" opacity=".3" fill="none"/>
    </pattern>
    <pattern id="woodKey" width="90" height="44" patternUnits="userSpaceOnUse">
      <rect width="90" height="44" fill="#f1d2a4"/>
      <path d="M0 12 C20 7, 40 15, 58 11 S78 5, 90 12" stroke="#b47a3e" stroke-width="1" opacity=".28" fill="none"/>
      <path d="M0 28 C22 33, 42 22, 62 29 S80 36, 90 30" stroke="#8a5728" stroke-width=".9" opacity=".22" fill="none"/>
    </pattern>
    <style>
      .bg { fill: url(#pageWash); }
      .panel { fill: #fffaf1; stroke: #c69457; stroke-width: 2; }
      .group { fill: url(#woodBody); stroke: #8b5628; stroke-width: 1.8; }
      .head { fill: url(#woodHead); stroke: #714019; stroke-width: 1.5; }
      .title { fill: #3b2513; font-family: Inter, Arial, sans-serif; font-size: 24px; font-weight: 700; }
      .subtitle { fill: #624123; font-family: Inter, Arial, sans-serif; font-size: 15px; }
      .label { fill: #fff7e8; font-family: Inter, Arial, sans-serif; font-size: 16px; font-weight: 700; }
      .text { fill: #35210f; font-family: Inter, Arial, sans-serif; font-size: 14px; }
      .key { fill: url(#woodKey); stroke: #8d5a2a; stroke-width: 1.3; rx: 9; }
      .key2 { fill: #f6dfbb; stroke: #9c6731; stroke-width: 1.3; rx: 9; }
      .kbd { fill: #2e1c0d; font-family: JetBrains Mono, Consolas, monospace; font-size: 13px; font-weight: 700; }
    </style>
  </defs>

  <rect class="bg" width="1040" height="640"/>
  <rect class="panel" x="32" y="28" width="976" height="584" rx="18"/>
  <text class="title" x="64" y="72">Excel macro hotkeys</text>
  <text class="subtitle" x="64" y="100">Custom VBA shortcuts for PlanSwift output, cleanup, forms, and final check.</text>

  <g transform="translate(64 132)">
    <rect class="group" x="0" y="0" width="440" height="178" rx="14"/>
    <rect class="head" x="0" y="0" width="440" height="42" rx="14"/>
    <text class="label" x="18" y="27">PlanSwift formatting</text>
    <rect class="key" x="18" y="62" width="112" height="30"/><text class="kbd" x="34" y="82">Ctrl+Shift+B</text>
    <text class="text" x="148" y="82">Format Beams</text>
    <rect class="key" x="18" y="102" width="112" height="30"/><text class="kbd" x="34" y="122">Ctrl+Shift+J</text>
    <text class="text" x="148" y="122">Format Joists</text>
    <rect class="key" x="18" y="142" width="112" height="30"/><text class="kbd" x="34" y="162">Ctrl+Shift+R</text>
    <text class="text" x="148" y="162">Format Details</text>
  </g>

  <g transform="translate(536 132)">
    <rect class="group" x="0" y="0" width="440" height="178" rx="14"/>
    <rect class="head" x="0" y="0" width="440" height="42" rx="14"/>
    <text class="label" x="18" y="27">Cleanup cells / rows</text>
    <rect class="key2" x="18" y="62" width="74" height="30"/><text class="kbd" x="34" y="82">Ctrl+Q</text>
    <text class="text" x="110" y="82">Delete selected cells, shift up</text>
    <rect class="key2" x="18" y="102" width="74" height="30"/><text class="kbd" x="34" y="122">Ctrl+W</text>
    <text class="text" x="110" y="122">Add selected cells, shift up</text>
    <rect class="key2" x="18" y="142" width="74" height="30"/><text class="kbd" x="34" y="162">Ctrl+E</text>
    <text class="text" x="110" y="162">Delete zero rows in column C</text>
  </g>

  <g transform="translate(64 338)">
    <rect class="group" x="0" y="0" width="440" height="198" rx="14"/>
    <rect class="head" x="0" y="0" width="440" height="42" rx="14"/>
    <text class="label" x="18" y="27">Forms / output write</text>
    <rect class="key" x="18" y="62" width="112" height="30"/><text class="kbd" x="34" y="82">Ctrl+Shift+W</text>
    <text class="text" x="148" y="82">Write wall values to form</text>
    <rect class="key" x="18" y="102" width="112" height="30"/><text class="kbd" x="34" y="122">Ctrl+Shift+Q</text>
    <text class="text" x="148" y="122">Write area values to form</text>
    <rect class="key" x="18" y="142" width="112" height="30"/><text class="kbd" x="34" y="162">Ctrl+Shift+N</text>
    <text class="text" x="148" y="162">Write to check</text>
  </g>

  <g transform="translate(536 338)">
    <rect class="group" x="0" y="0" width="440" height="198" rx="14"/>
    <rect class="head" x="0" y="0" width="440" height="42" rx="14"/>
    <text class="label" x="18" y="27">Helpers and final check</text>
    <rect class="key2" x="18" y="62" width="112" height="30"/><text class="kbd" x="34" y="82">Ctrl+Shift+F</text>
    <text class="text" x="148" y="82">Sum same values</text>
    <rect class="key2" x="18" y="102" width="112" height="30"/><text class="kbd" x="34" y="122">Ctrl+Shift+I</text>
    <text class="text" x="148" y="122">Insert Note: text</text>
    <rect class="key2" x="18" y="142" width="112" height="30"/><text class="kbd" x="34" y="162">Ctrl+Shift+O</text>
    <text class="text" x="148" y="162">Set date</text>
  </g>

  <g transform="translate(64 558)">
    <rect class="key" x="0" y="0" width="92" height="30"/><text class="kbd" x="16" y="20">Ctrl+M</text>
    <text class="text" x="104" y="20">Multiply all in cell</text>
    <rect class="key" x="276" y="0" width="112" height="30"/><text class="kbd" x="292" y="20">Ctrl+Shift+V</text>
    <text class="text" x="400" y="20">Remove validations</text>
    <rect class="key" x="620" y="0" width="112" height="30"/><text class="kbd" x="636" y="20">Ctrl+Shift+L</text>
    <text class="text" x="744" y="20">Add bolts block</text>
  </g>
</svg>
